<svg width="30" height="34" viewBox="0 0 30 34" fill="none" xmlns="http://www.w3.org/2000/svg">
<path d="M4.04976 10.328C4.73375 9.67944 5.5495 9.3791 6.35985 9.33819L6.5647 9.33333H6.68315H7.87523L7.66791 8.15942C7.66625 8.15005 7.66625 8.14049 7.66791 8.13112L7.67948 8.06558L7.68227 7.99908C7.84609 4.09029 11.0746 1 15.0082 1C18.674 1 21.7274 3.68373 22.2588 7.21263L22.289 7.95917L21.9992 8.6056L21.7549 7.97304C21.7516 7.96471 21.7498 7.956 21.7494 7.94723C21.744 4.20047 18.6955 1.17064 14.9429 1.17064C11.187 1.17064 8.1364 4.20585 8.1364 7.95721V8.04483L8.15164 8.13112C8.15329 8.14049 8.15329 8.15005 8.15164 8.15942L7.94432 9.33333H9.1364H20.822H21.6728H22.2802H23.2172H23.4774C24.9579 9.33333 26.745 10.334 27.5092 13.3675L27.5879 13.7081L28.8631 23.9811L28.864 23.9888L28.8651 23.9966C29.2992 27.0959 28.6468 29.1002 27.5089 30.3441C26.3562 31.6041 24.5331 32.2738 22.2423 32.3296L21.9247 32.3333H8.11421C5.69271 32.3333 3.79974 31.8829 2.60071 30.7849C1.45041 29.7315 0.707898 27.8587 1.10967 24.428L1.16665 23.9856L1.16705 23.9825L2.4602 13.6825C2.75237 12.0346 3.36442 10.9779 4.04976 10.328ZM12.6346 15.3982V15.3681L12.6328 15.338L12.6214 15.1478L12.6195 15.1175L12.6159 15.0873C12.4674 13.8667 11.4467 12.8822 10.1617 12.8822C8.76889 12.8822 7.68868 14.036 7.68868 15.3982C7.68868 16.7604 8.76889 17.9143 10.1617 17.9143C11.5544 17.9143 12.6346 16.7604 12.6346 15.3982ZM19.8097 12.8822C18.4169 12.8822 17.3367 14.036 17.3367 15.3982C17.3367 16.7604 18.4169 17.9143 19.8097 17.9143C21.2025 17.9143 22.2827 16.7604 22.2827 15.3982C22.2827 14.036 21.2025 12.8822 19.8097 12.8822Z" stroke="black" stroke-width="2"/>
</svg>
