<svg width="26" height="30" viewBox="0 0 26 30" fill="none" xmlns="http://www.w3.org/2000/svg">
<path d="M12.757 0.833252C16.5536 0.833252 19.6749 3.81662 19.8333 7.59688H19.7963C19.8008 7.70676 19.7796 7.81618 19.7346 7.91659H19.9558C21.6799 7.91659 23.4853 9.11156 24.2092 11.9963L24.2878 12.3367L25.3771 21.1125C26.161 26.7097 23.0987 29.0636 18.9213 29.1633L18.6412 29.1666H6.89708C2.65168 29.1666 -0.619729 27.6196 0.0995645 21.4933L0.148615 21.1125L1.25041 12.3367C1.7937 9.2301 3.61761 8.00477 5.375 7.92121L5.56993 7.91659H5.68067C5.662 7.81083 5.662 7.70263 5.68067 7.59688C5.83911 3.81662 8.96041 0.833252 12.757 0.833252ZM8.63741 12.6331C7.94593 12.6331 7.38538 13.21 7.38538 13.9217C7.38538 14.6334 7.94593 15.2104 8.63741 15.2104C9.32889 15.2104 9.88945 14.6334 9.88945 13.9217L9.87969 13.7601C9.80243 13.1247 9.2757 12.6331 8.63741 12.6331ZM16.8382 12.6331C16.1468 12.6331 15.5862 13.21 15.5862 13.9217C15.5862 14.6334 16.1468 15.2104 16.8382 15.2104C17.5297 15.2104 18.0903 14.6334 18.0903 13.9217C18.0903 13.21 17.5297 12.6331 16.8382 12.6331ZM12.7015 2.6783C9.97566 2.6783 7.76594 4.88042 7.76594 7.59688C7.78462 7.70263 7.78462 7.81083 7.76594 7.91659H17.6987C17.6593 7.81451 17.6384 7.70625 17.637 7.59688C17.637 4.88042 15.4273 2.6783 12.7015 2.6783Z" fill="black"/>
</svg>
